<?xml version="1.0" encoding="UTF-8" standalone="no"?>
<!DOCTYPE svg PUBLIC "-//W3C//DTD SVG 1.1//EN"
 "http://www.w3.org/Graphics/SVG/1.1/DTD/svg11.dtd">
<!-- Generated by graphviz version 2.50.0 (20211204.2007)
 -->
<!-- Title: others/binary_to_decimal.cpp Pages: 1 -->
<svg width="263pt" height="84pt"
 viewBox="0.00 0.00 263.00 84.00" xmlns="http://www.w3.org/2000/svg" xmlns:xlink="http://www.w3.org/1999/xlink">
<g id="graph0" class="graph" transform="scale(1 1) rotate(0) translate(4 80)">
<title>others/binary_to_decimal.cpp</title>
<polygon fill="white" stroke="transparent" points="-4,4 -4,-80 259,-80 259,4 -4,4"/>
<!-- Node1 -->
<g id="node1" class="node">
<title>Node1</title>
<g id="a_node1"><a xlink:title="[Binary to Decimal conversion]">
<polygon fill="#bfbfbf" stroke="black" points="56,-56.5 56,-75.5 200,-75.5 200,-56.5 56,-56.5"/>
<text text-anchor="middle" x="128" y="-63.5" font-family="Helvetica,sans-Serif" font-size="10.00">others/binary_to_decimal.cpp</text>
</a>
</g>
</g>
<!-- Node2 -->
<g id="node2" class="node">
<title>Node2</title>
<g id="a_node2"><a xlink:title=" ">
<polygon fill="white" stroke="#bfbfbf" points="0,-0.5 0,-19.5 54,-19.5 54,-0.5 0,-0.5"/>
<text text-anchor="middle" x="27" y="-7.5" font-family="Helvetica,sans-Serif" font-size="10.00">iostream</text>
</a>
</g>
</g>
<!-- Node1&#45;&gt;Node2 -->
<g id="edge1" class="edge">
<title>Node1&#45;&gt;Node2</title>
<path fill="none" stroke="midnightblue" d="M111.77,-56.32C95.65,-47.7 70.7,-34.36 52.04,-24.39"/>
<polygon fill="midnightblue" stroke="midnightblue" points="53.66,-21.28 43.19,-19.65 50.36,-27.46 53.66,-21.28"/>
</g>
<!-- Node3 -->
<g id="node3" class="node">
<title>Node3</title>
<g id="a_node3"><a xlink:title=" ">
<polygon fill="white" stroke="#bfbfbf" points="72.5,-0.5 72.5,-19.5 121.5,-19.5 121.5,-0.5 72.5,-0.5"/>
<text text-anchor="middle" x="97" y="-7.5" font-family="Helvetica,sans-Serif" font-size="10.00">cassert</text>
</a>
</g>
</g>
<!-- Node1&#45;&gt;Node3 -->
<g id="edge2" class="edge">
<title>Node1&#45;&gt;Node3</title>
<path fill="none" stroke="midnightblue" d="M122.88,-56.08C118.59,-48.61 112.34,-37.72 107.06,-28.52"/>
<polygon fill="midnightblue" stroke="midnightblue" points="110.04,-26.68 102.02,-19.75 103.97,-30.17 110.04,-26.68"/>
</g>
<!-- Node4 -->
<g id="node4" class="node">
<title>Node4</title>
<g id="a_node4"><a xlink:title=" ">
<polygon fill="white" stroke="#bfbfbf" points="139.5,-0.5 139.5,-19.5 180.5,-19.5 180.5,-0.5 139.5,-0.5"/>
<text text-anchor="middle" x="160" y="-7.5" font-family="Helvetica,sans-Serif" font-size="10.00">string</text>
</a>
</g>
</g>
<!-- Node1&#45;&gt;Node4 -->
<g id="edge3" class="edge">
<title>Node1&#45;&gt;Node4</title>
<path fill="none" stroke="midnightblue" d="M133.28,-56.08C137.71,-48.61 144.16,-37.72 149.62,-28.52"/>
<polygon fill="midnightblue" stroke="midnightblue" points="152.73,-30.14 154.81,-19.75 146.71,-26.57 152.73,-30.14"/>
</g>
<!-- Node5 -->
<g id="node5" class="node">
<title>Node5</title>
<g id="a_node5"><a xlink:title=" ">
<polygon fill="white" stroke="#bfbfbf" points="199,-0.5 199,-19.5 255,-19.5 255,-0.5 199,-0.5"/>
<text text-anchor="middle" x="227" y="-7.5" font-family="Helvetica,sans-Serif" font-size="10.00">algorithm</text>
</a>
</g>
</g>
<!-- Node1&#45;&gt;Node5 -->
<g id="edge4" class="edge">
<title>Node1&#45;&gt;Node5</title>
<path fill="none" stroke="midnightblue" d="M143.91,-56.32C159.64,-47.74 183.94,-34.49 202.21,-24.52"/>
<polygon fill="midnightblue" stroke="midnightblue" points="204.03,-27.52 211.13,-19.65 200.68,-21.37 204.03,-27.52"/>
</g>
</g>
</svg>
